<svg xmlns="http://www.w3.org/2000/svg" width="128" height="200" viewBox="0 0 128 200"><rect width="100%" height="100%" fill="#101828"/><path fill="#e60076" d="M34.44 76.67v1.65h-3.27v9.19h-2.02v-9.19h-3.27v-1.65zm2.98-.3v4.27q.45-.42.99-.68t1.27-.26q.63 0 1.12.21t.81.6q.33.39.5.92.17.54.17 1.18v4.9h-1.86v-4.9q0-.7-.32-1.09t-.98-.39q-.48 0-.9.22t-.8.6v5.56h-1.85V76.37zm6.67 3.45h1.86v7.69h-1.86zm2.12-2.25q0 .24-.1.45t-.26.37-.38.25-.46.09-.46-.09q-.21-.09-.37-.25t-.25-.37-.09-.45q0-.25.09-.46.09-.22.25-.38.16-.15.37-.25.22-.09.46-.09t.46.09q.22.1.38.25.16.16.26.38.1.21.1.46m6.75 3.08-.42.67q-.08.11-.16.16t-.21.05q-.14 0-.29-.07-.15-.08-.36-.17-.2-.09-.46-.17-.26-.07-.61-.07-.55 0-.86.23t-.31.6q0 .25.16.42t.43.3q.27.12.6.23.34.1.69.22t.69.27q.33.15.6.39t.43.57.16.79q0 .56-.2 1.03t-.59.81-.96.53q-.58.19-1.33.19-.39 0-.77-.07t-.73-.2-.64-.3q-.3-.17-.53-.37l.43-.71q.08-.13.2-.19.11-.07.28-.07t.33.1l.35.21q.21.11.48.21.27.09.69.09.33 0 .57-.08.24-.07.39-.2t.23-.3q.07-.17.07-.35 0-.27-.16-.44-.17-.17-.43-.3-.27-.13-.61-.23t-.7-.22q-.35-.12-.69-.28-.35-.16-.61-.41-.27-.25-.43-.61t-.16-.87q0-.47.19-.9.18-.42.55-.74.36-.32.91-.51.54-.19 1.25-.19.8 0 1.45.26t1.09.69m15.65-3.98h1.52v10.84h-1.78v-7q0-.42.05-.91l-3.28 6.16q-.23.44-.71.44h-.29q-.48 0-.71-.44l-3.31-6.18q.02.24.03.48.02.24.02.45v7h-1.78V76.67h1.76q.09.01.17.04t.15.1q.06.07.12.18l3.25 6.02q.12.24.23.5.11.25.22.52.1-.28.21-.54.12-.25.24-.49l3.21-6.01q.06-.11.12-.18.07-.07.15-.1t.18-.04zm7.71 8.85v-1.29q-.8.03-1.35.13-.55.11-.88.26-.33.16-.47.37t-.14.46q0 .49.28.7.29.2.76.2.57 0 .99-.2.41-.21.81-.63m-3.92-4.04-.33-.59q1.33-1.22 3.2-1.22.67 0 1.21.22.53.23.9.62.36.39.55.94.2.55.2 1.2v4.86h-.84q-.27 0-.41-.08t-.22-.32l-.17-.55q-.29.26-.57.46t-.58.33q-.3.14-.64.21t-.75.07q-.49 0-.9-.13t-.71-.39q-.3-.27-.47-.66-.16-.39-.16-.9 0-.3.09-.59.1-.28.32-.55.22-.26.58-.49.35-.23.86-.41.52-.17 1.2-.28t1.56-.13v-.45q0-.77-.33-1.14-.33-.38-.95-.38-.45 0-.75.11-.3.1-.52.24l-.41.23q-.18.11-.41.11-.19 0-.33-.1-.13-.1-.22-.24m9.07-1.33.13.61q.23-.23.49-.43t.55-.34.62-.22q.33-.07.72-.07.63 0 1.11.21.49.21.82.6.32.39.49.92.17.54.17 1.18v4.9h-1.85v-4.9q0-.7-.32-1.09-.33-.39-.99-.39-.48 0-.9.22t-.79.6v5.56h-1.85v-7.69H81q.36 0 .47.33m9.67 3.32q.34 0 .6-.09.25-.09.42-.26.17-.16.26-.4.08-.23.08-.5 0-.58-.34-.91t-1.02-.33-1.03.33q-.34.33-.34.91 0 .27.09.5t.25.4q.17.17.43.26t.6.09m2.09 4.38q0-.22-.13-.36-.14-.14-.37-.22t-.55-.12q-.31-.04-.66-.06-.34-.01-.72-.03-.37-.01-.72-.06-.31.17-.5.41-.19.23-.19.53 0 .21.1.38.1.18.32.31.23.12.58.2.35.07.86.07.52 0 .89-.08.38-.08.62-.22.25-.14.36-.33t.11-.42m-.37-7.77h2.22v.69q0 .33-.4.4l-.69.13q.16.4.16.87 0 .57-.23 1.03t-.64.79q-.4.32-.95.49-.55.18-1.19.18-.23 0-.44-.02l-.41-.06q-.36.22-.36.49 0 .23.21.34.22.11.57.15t.8.06q.45.01.93.05.47.03.92.13.45.09.8.29.35.21.57.55.21.35.21.9 0 .51-.25.99t-.73.86q-.47.37-1.17.6-.69.23-1.58.23-.87 0-1.51-.17-.65-.17-1.07-.45-.43-.28-.64-.65t-.21-.77q0-.53.32-.9.33-.36.9-.58-.31-.16-.49-.42t-.18-.69q0-.17.07-.36.06-.18.18-.36.13-.18.32-.34.18-.16.44-.29-.59-.31-.92-.84-.33-.52-.33-1.23 0-.57.22-1.03.23-.46.64-.79.41-.32.97-.5.56-.17 1.22-.17.49 0 .93.1.43.1.79.3m7.45 5.44v-1.29q-.8.03-1.35.13-.55.11-.88.26-.33.16-.47.37t-.14.46q0 .49.29.7.29.2.75.2.57 0 .99-.2.41-.21.81-.63m-3.91-4.04-.33-.59q1.32-1.22 3.19-1.22.68 0 1.21.22.53.23.9.62t.56.94.19 1.2v4.86h-.84q-.26 0-.41-.08-.14-.08-.22-.32l-.17-.55q-.29.26-.57.46-.27.2-.57.33-.3.14-.64.21-.35.07-.76.07-.49 0-.9-.13t-.71-.39q-.3-.27-.47-.66-.16-.39-.16-.9 0-.3.1-.59.09-.28.32-.55.22-.26.57-.49t.87-.41q.51-.17 1.19-.28t1.56-.13v-.45q0-.77-.33-1.14-.33-.38-.95-.38-.45 0-.75.11-.29.1-.52.24-.22.13-.41.23-.18.11-.41.11-.19 0-.33-.1-.13-.1-.21-.24M55.74 94.37v4.27q.44-.42.99-.68.53-.26 1.26-.26.63 0 1.12.21t.81.6q.33.39.5.92.17.54.17 1.18v4.9h-1.85v-4.9q0-.7-.33-1.09-.32-.38-.98-.38-.48 0-.9.21-.42.22-.79.6v5.56h-1.86V94.37zm10.67 9.15v-1.3q-.81.04-1.35.14-.55.11-.88.26-.33.16-.47.37-.15.21-.15.46 0 .49.29.7.29.2.76.2.57 0 .98-.2.42-.21.82-.63m-3.92-4.04-.33-.59q1.33-1.22 3.2-1.22.67 0 1.2.22.54.23.9.62.37.39.56.94t.19 1.2v4.86h-.84q-.26 0-.4-.08t-.23-.32l-.16-.55q-.29.26-.57.46t-.58.33q-.3.14-.64.21t-.75.07q-.49 0-.9-.13-.42-.13-.72-.4-.3-.26-.46-.65-.17-.39-.17-.9 0-.3.1-.59t.32-.55.57-.49q.36-.23.87-.41.51-.17 1.2-.28.68-.11 1.56-.13v-.45q0-.77-.33-1.14t-.96-.37q-.45 0-.74.1-.3.11-.52.24l-.41.23q-.19.11-.41.11-.2 0-.33-.1-.14-.1-.22-.24m12.58-.83-.42.66q-.08.13-.16.17-.08.05-.21.05t-.29-.07q-.15-.08-.35-.17-.21-.09-.46-.17-.26-.07-.62-.07-.54 0-.85.23-.32.23-.32.61 0 .24.17.41.16.17.42.3.27.12.61.23.34.1.68.22.35.12.69.27t.6.39q.27.24.43.57t.16.79q0 .56-.2 1.03-.2.46-.59.81-.39.34-.96.53t-1.32.19q-.4 0-.78-.07t-.73-.2-.64-.3q-.3-.17-.52-.37l.42-.71q.09-.13.2-.2.11-.06.28-.06.18 0 .33.09.15.1.36.22.2.11.47.21.28.09.7.09.33 0 .56-.08.24-.08.39-.2.16-.13.23-.3t.07-.35q0-.27-.16-.44t-.43-.3-.61-.23-.69-.22q-.36-.12-.7-.28t-.61-.41-.43-.61-.16-.87q0-.47.19-.9.19-.42.55-.74t.91-.51q.54-.19 1.25-.19.8 0 1.45.26t1.09.69m-34.14 14.02h1.78v10.84h-1.04q-.24 0-.4-.08t-.31-.26l-5.66-7.23q.04.49.04.91v6.66h-1.77v-10.84h1.05q.13 0 .22.01.1.01.17.04.07.04.14.1t.15.17l5.68 7.26q-.02-.26-.03-.52-.02-.26-.02-.47zm7.31 3.03q.85 0 1.55.27.7.28 1.2.79t.77 1.25q.27.73.27 1.64t-.27 1.65q-.27.73-.77 1.25t-1.2.8q-.7.27-1.55.27-.87 0-1.57-.27-.71-.28-1.21-.8-.49-.52-.77-1.25-.27-.74-.27-1.65t.27-1.64q.28-.74.77-1.25.5-.51 1.21-.79.7-.27 1.57-.27m0 6.5q.96 0 1.42-.65.46-.64.46-1.89 0-1.24-.46-1.9-.46-.65-1.42-.65-.98 0-1.45.66-.47.65-.47 1.89t.47 1.89 1.45.65m16.59-1.25q.17 0 .3.13l.79.86q-.66.82-1.62 1.26-.97.43-2.32.43-1.2 0-2.17-.41-.96-.41-1.64-1.15-.69-.73-1.05-1.76-.36-1.01-.36-2.22 0-1.22.39-2.24t1.09-1.75q.71-.74 1.7-1.15.98-.4 2.17-.4t2.1.39q.92.38 1.57 1.02l-.68.93q-.06.09-.15.16t-.26.07q-.11 0-.23-.07-.12-.06-.26-.15-.15-.1-.33-.21-.19-.11-.44-.21-.25-.09-.57-.15-.33-.07-.76-.07-.72 0-1.33.26-.6.26-1.04.75-.43.49-.67 1.2t-.24 1.62.26 1.62q.26.72.7 1.21.44.48 1.04.74t1.29.26q.41 0 .75-.04.33-.05.61-.15.28-.09.53-.25.26-.15.5-.38.08-.07.16-.11t.17-.04m5.59-5.25q.86 0 1.56.27.7.28 1.2.79t.76 1.25q.28.73.28 1.64t-.28 1.65q-.26.73-.76 1.25t-1.2.8q-.7.27-1.56.27t-1.57-.27q-.7-.28-1.2-.8t-.77-1.25q-.28-.74-.28-1.65t.28-1.64q.27-.74.77-1.25t1.2-.79q.71-.27 1.57-.27m0 6.5q.96 0 1.42-.65.46-.64.46-1.89 0-1.24-.46-1.9-.46-.65-1.42-.65-.97 0-1.44.66-.47.65-.47 1.89t.47 1.89 1.44.65m10.69-6.39h1.46l-3.05 7.7h-1.68l-3.05-7.7h1.53q.2 0 .34.1t.19.25l1.48 4.11q.12.36.21.71.09.34.16.69.08-.35.17-.69.09-.35.21-.71l1.52-4.11q.05-.15.18-.25.14-.1.33-.1m3.9 2.97h3.5q0-.36-.1-.68t-.31-.56q-.2-.24-.51-.38t-.72-.14q-.81 0-1.27.46t-.59 1.3m4.73 1.11h-4.76q.04.6.21 1.03.16.43.43.71t.64.42.82.14.78-.1q.33-.11.57-.24.25-.12.43-.23.18-.1.35-.1.24 0 .35.17l.53.67q-.31.36-.69.61-.38.24-.8.39-.41.14-.84.2-.44.06-.84.06-.8 0-1.49-.26-.69-.27-1.2-.79t-.8-1.29q-.3-.77-.3-1.78 0-.79.26-1.48.25-.7.73-1.21.47-.51 1.16-.82.69-.29 1.55-.29.73 0 1.34.23.62.23 1.06.68.44.44.69 1.09.26.65.26 1.48 0 .42-.1.57-.08.14-.34.14m3.46-3.61.11.87q.36-.69.85-1.08.5-.4 1.17-.4.54 0 .86.23l-.12 1.39q-.04.14-.11.19-.07.06-.19.06-.11 0-.33-.04-.23-.04-.44-.04-.3 0-.54.1-.24.08-.43.25-.2.17-.34.41-.15.24-.28.55v4.74h-1.85v-7.7h1.09q.28 0 .4.11.11.1.15.36"/></svg>